<?xml version="1.0" encoding="UTF-8"?>
<svg id="Lag_1" data-name="Lag 1" xmlns="http://www.w3.org/2000/svg" viewBox="0 0 226.65 49.81">
  <defs>
    <style>
      .cls-1 {
        fill: #1d1d1b;
        font-family: Corporate-Gothic-NBP, 'Corporate Gothic NBP';
        font-size: 40px;
      }

      .cls-2 {
        fill: #231f20;
      }
    </style>
  </defs>
  <g>
    <g>
      <g>
        <path class="cls-2" d="M46.61,40.73c-.55,5.15-4.6,6.27-7,4.15-2.4-2.12-4.67-11.68-2.08-17.5,2.59-5.82,7.19,1,7.19,1-2.02-4.54-6.82-6.19-8.81-1.15-1.99,5.04-.31,15.08-.31,15.08-.71-2.57-5.27-4.83-5.27-4.83L10.73,28.46c.18,1.61-.85,3.3-.85,3.3,0,0,14.37,5.24,18.86,7.03,4.48,1.78,6.8,4.05,6.8,4.05h2.01c2.34,6.06,11.27,3.85,11.27,3.85-2.42-2.48-2.2-5.96-2.2-5.96Z"/>
        <path class="cls-2" d="M32.17,36.62s-11.76-6.57-14.5-8.2c-2.73-1.63-5.96-.22-5.96-.22l20.45,8.42Z"/>
        <path class="cls-2" d="M18.8,18.21c.9-.35,15.77,7.12,15.77,7.12,0,0-18.58-9.79-19.69-10.39-1.11-.59-1.91-.69-1.73,1.18,.18,1.88,.8,4.2,1.77,7.29,.97,3.09,3.8,4.22,3.8,4.22l13.61,7.97c-.79-2.15-8.4-6.7-10.13-7.78-1.73-1.08-2.85-3.66-3.25-5.49-.39-1.83-1.06-3.78-.16-4.13Z"/>
        <path class="cls-2" d="M97.21,44.16c-7.4,1.86-24.55,4.33-33.25,3.46-8.71-.87-12.9-2.49-14.4-5.95-1.49-3.46-2.41-7.95-3.38-9.02,0,0,.77,4.03,.69,6.23-.08,2.2,.43,6.1,2.2,7.45,1.77,1.36,11.58,2.75,22.52,1.93l10.94-.83s22.4-2.54,23.92-7.42c0,0-1.84,2.28-9.23,4.14Z"/>
        <path class="cls-2" d="M54.12,29.54c6.85,7.94,14.97,8.17,25.73,7.7,10.75-.47,17.15-2.94,17.15-2.94,0,0-13.65,3.3-25.21,1.53-11.56-1.77-15.38-5.59-17.11-7.2-1.73-1.61-6.69-6.37-10.62-6.49,0,0,4.54,.98,10.07,7.4Z"/>
        <path class="cls-2" d="M82.99,17.77s10.58,3.59,17.27,11.36c0,0-5.35-10.22-16.52-14.4,0,0,1.21,1.85-.75,3.04Z"/>
        <path class="cls-2" d="M36.03,18.45s-.11,.3-.54,.52c1.44,.74,2.41,1.11,2.9,1.09,.98-.04,2.75-.83,2.75-.83,0,0-3.03-10.87-6.96-12.72-3.94-1.85-14.95,2.89-14.95,2.89,0,0,5.51,3.19,10.38,6.18,.82,.5,1.57,.96,2.28,1.37,1.34-.01,3.47,.28,3.47,.28l.67,1.22Zm-12.18-8.54l.75-1.65s6.5-2.65,8.81-1.26c2.31,1.39,3.59,5.45,3.59,5.45,0,0-7.29-3.3-13.15-2.54Z"/>
        <path class="cls-2" d="M39.88,7.55l5.27,10.31s4.29,2.28,13.77,2.2c9.48-.08,23.13-1.02,23.37-5.04,0,0-5.55,2.9-15.81-.3-10.27-3.2-14.79-10.08-26.59-7.17Z"/>
        <path class="cls-2" d="M42.5,27.38c-.37-.84-2.08-2.34-3.46-1.1-1.38,1.24,1.57,6.79,1.57,6.79,0,0,2.26-4.85,1.89-5.69Z"/>
        <path class="cls-2" d="M44.6,31.08c-.94-.47-2.95,3.19-2.95,3.19,0,0,4.45,1.97,4.52,1.35,.08-.62-.63-4.06-1.57-4.53Z"/>
        <path class="cls-2" d="M42.08,35.73s1.46,7.97,2.48,8.01c1.02,.04,1.3-2.24,1.61-3.85,.31-1.61-4.09-4.16-4.09-4.16Z"/>
        <path class="cls-2" d="M41.14,44.8c1.06,.2-.28-8.61-.28-8.61,0,0-3.03,1.85-3.11,3.23-.08,1.38,2.32,5.19,3.38,5.39Z"/>
        <path class="cls-2" d="M37.24,30.33c-.51,.71-.67,6.61,0,6.57,.67-.04,3.15-2.28,3.15-2.28,0,0-2.64-5-3.15-4.29Z"/>
        <path class="cls-2" d="M4.17,14.37c-.97,1.08,1.1,5.91,1.1,5.91,0,0,1.58-4.22,1.33-4.95-.26-.73-1.46-2.04-2.43-.96Z"/>
        <path class="cls-2" d="M8.08,18.54c-.66-.41-2.07,2.77-2.07,2.77,0,0,3.12,1.71,3.17,1.17,.06-.54-.44-3.53-1.1-3.94Z"/>
        <path class="cls-2" d="M6.31,22.59s1.02,6.94,1.74,6.97c.72,.03,.91-1.95,1.13-3.35,.22-1.4-2.87-3.62-2.87-3.62Z"/>
        <path class="cls-2" d="M5.65,30.49c.75,.17-.19-7.5-.19-7.5,0,0-2.13,1.61-2.18,2.81-.06,1.2,1.63,4.52,2.37,4.69Z"/>
        <path class="cls-2" d="M2.91,17.89c-.36,.62-.47,5.75,0,5.72,.47-.03,2.21-1.99,2.21-1.99,0,0-1.85-4.35-2.21-3.73Z"/>
        <path class="cls-2" d="M63.44,5.39c-3.1,.12-8.02,.75-8.02,.75l7.16,.24c4.45,1.1,15.11,6.25,15.11,6.25-5.47-3.5-14.24-7.24-14.24-7.24Z"/>
        <path class="cls-2" d="M98.73,31.1c-6.35,3.52-20.35,3.62-20.35,3.62,11.49,1.52,20.35-3.62,20.35-3.62Z"/>
        <path class="cls-2" d="M80.91,46.44c7.95-.67,15.93-2.52,20.02-3.8,4.09-1.28,5.51-3.25,5.51-3.25l-3.42,.59,2.71-8.63c-1.97,1.42-6.1,6.33-6.53,7.75-.43,1.42-1.22,3.62-6.14,4.68-4.92,1.06-8.54,1.34-9.68,.51-1.14-.83-3.19-2.48-9.09-4.05-5.9-1.57-12.31-3.46-12.08-1.49,.24,1.97,4.29,4.92,5.63,5.7,1.34,.79,.51,2.63,.51,2.63,0,0,4.6,.02,12.55-.65Zm-15.38-6.82c.06-1.51,7.43,1.53,7.43,1.53,0,0-11.01-3.5-3.23,1.97,0,0-4.27-1.99-4.21-3.5Z"/>
        <path class="cls-2" d="M30.83,17.23c.08,.63,2.52,2.04,3.74,1.97,.41-.02,.7-.12,.92-.23-.98-.5-2.18-1.18-3.6-2.02-.63,0-1.08,.08-1.06,.28Z"/>
        <path class="cls-2" d="M12.29,15.42c.47,5.77,2.63,9.49,2.63,9.49-1.52-3.61-2.63-9.49-2.63-9.49Z"/>
        <path class="cls-2" d="M71,27.63s14.38,8.45,19.43,2.47c4.55-5.39-8.15-10.9-8.15-10.9,0,0,2.81,5.15-1.16,6.93-3.97,1.78-17.43-4.07-20.05-3.64,0,0,4.72,1.42,9.92,5.15h0Z"/>
        <path class="cls-2" d="M38.55,5.29s.43,.29,.67,.8c0,0,11.6-2.65,19.25-2.34,0,0-9.65-.7-19.92,1.54Z"/>
        <path class="cls-2" d="M23.7,20.59s-4.01-1.71-4.55-1.68c-.54,.04,.97,4.98,1.73,6.55,.76,1.57,2.96,2.45,2.96,2.45,0,0-2.2-1.26-2.71-2.83-.51-1.57-1.89-5.77-1.48-5.77s4.04,1.28,4.04,1.28Z"/>
      </g>
      <path class="cls-2" d="M3.85,28.9s1.37,2.15-1.59,2.84c-2.96,.69-2.79,3.9,3.75,3.18,6.54-.72,10.47-.24,17.3,4.09,6.83,4.33,11.5,10.54,17.56,10.49,6.06-.05,4.91-2.12,13.28-.67,8.37,1.44,19.19,1.79,34.9-2.33,0,0-24.08,3.39-34.66,.6l-5.58-4.09-1.35-3.64-.6,.38s.34,2.74-.45,4.3c-.79,1.57-3.18,3.26-5.27,2.15-2.1-1.1-3.58-4.33-3.58-4.33,0,0-.66,.36-.75,.36s-1.22,.31-1.22,.31c0,0-5.97-5.72-12.24-6.93-6.27-1.21-11.88-4.81-11.88-4.81,0,0,.17,1.94-1.88,1.33-2.04-.61-2.72-.15-2.72-.15l-1.42-.48s-1.32-1.75-1.59-2.6Z"/>
      <path class="cls-2" d="M8.85,31.16s1.24-2.49,1.26-4.69c0,0,.05,1.61,.62,1.99,.83,.56,.98,1.33,.98,1.33l.11,.71s.05,.54,.09,.67c.04,.13,.74,1.08,.14,1.23-.6,.14-1.03,.45-1.59,.45s-1.7-.02-1.62-.07c.07-.05,0-1.61,0-1.61Z"/>
      <path class="cls-2" d="M46.44,41.77s.55-3.04,.11-6.86c0,0,1.56,3.57,2.01,6.42,.45,2.85,.13,3.93,.13,3.93,0,0-.61,.29-.67,.25-.05-.04-.09-.13-.4-.25-.3-.13-.21,0-.5-.23-.29-.23-.7-.7-.68-.76,.03-.05-.03-.18,0-.29,.03-.11,0-2.21,0-2.21Z"/>
      <path class="cls-2" d="M48.81,37.8s.9,7.04,9.02,8.34c0,0-6.93-2.45-9.02-8.34Z"/>
      <path class="cls-2" d="M4.6,11.67s2.06-3.12,5.92-2.67c3.86,.45,6.87,2.67,6.87,2.67,0,0-1.83-1.25-4.28-1.89-2.45-.64-5.62-.78-8.52,1.89Z"/>
      <path class="cls-2" d="M7.17,12.47s2.35,1.84,2.92,7.6c0,0,.69-5.21-2.92-7.6Z"/>
    </g>
    <path class="cls-2" d="M67.75,46.98s.72-1.42-.24-2.14c-.96-.72-5.08-2.74-5.8-5.73,0,0,.12,3.15,3.15,4.96,3.03,1.8,2.89,2.91,2.89,2.91Z"/>
    <path class="cls-2" d="M59.5,25.75c-4.3-.6-7.87-.94-6.58,.13,1.29,1.08,5.98,5.4,10.71,6.16,4.74,.76,10.98,1.02,10.98,1.02,0,0-10.8-6.71-15.11-7.32Zm1.09,.92c3.8,.75,12.03,5.68,12.03,5.68-4.19-1.44-12.03-5.68-12.03-5.68Z"/>
    <path class="cls-2" d="M100.2,21.56c4.25,3.44,5.61,8.6,5.61,8.6-3.15-15.31-23.13-16.52-23.13-16.52,0,0-11.54-6.77-20.46-10.18C53.29,.05,42.63,1.99,42.63,1.99l-.05-1.57-3.17-.42L.2,3.72S.07,5.17,0,6.14c-.07,.97,.41,1.1,.41,1.1l2.99,.42,.13-.87,2.78-.34-.31,2.12C1.91,11.46,1.09,17.02,1.7,21.95c.6,4.93,1.42,4.64,1.42,4.64-1.07-3.11-1.02-12.95,1.26-13.22,2.28-.26,3.86,2.96,4.83,7.32,.97,4.35-.12,10.12-2.03,10.73-1.91,.6-3.32-2.52-3.32-2.52,0,0,1.09,3.03,2.48,3.51,1.39,.48,4.12-.14,4.12-.14-.95-.04-1.06-.88-.8-2.16,.26-1.29,.89-6.98-1.08-13.24-1.97-6.27-4.96-4.2-4.96-4.2,3.34-6.14,9.13-3.82,12.12-2.44,2.99,1.38,17.09,10.94,20.36,11.55,3.27,.61,6.16,.02,6.16,.02-5.94,.28-11.22-3.49-11.22-3.49l-14.87-9.23s10.96-4.48,15.73-4.56c4.77-.08,6.24,3.04,6.24,3.04l5.93,11.53c13.1,2.56,30.41,13.57,30.41,13.57-12.31-9.52-18.03-11.15-18.03-11.15,8.6,.1,18.17-1.91,18.17-1.91-22.47,2.78-29.82-1.1-29.82-1.1l-5.69-11.07c11.56-2.62,24.07-2.94,24.07-2.94,4.33,1.15,16.76,8.52,17.65,9,.89,.47,2.57,1.08,1.73,2.85-.84,1.77-7.45,3.16-7.45,3.16,11.59-1.26,7.87-5.14,7.87-5.14,5.93,.37,12.22,3.41,12.22,3.41,0,0,.47,.79,.81,2.18,.34,1.39,1.29,3.38,2.44,4.48,1.15,1.1,2.47,4.35,2.47,4.35,0,0,.76-.76,.55-3.2-.21-2.44-1.26-4.01-1.26-4.01ZM.5,4.07l2.6,1.68s-1.95-.63-2.6-1.68Zm4.33,1.11C9.26,4.07,41.98,.75,41.98,.75L4.83,5.18Zm8.28,1.51c-3.42,.52-5.26,1.26-5.26,1.26v-1.78l4.96-.58,4.38-1.47,9.7-1.18h2.57l2.26,.39-6.48,1.55s-8.71,1.28-12.13,1.81Zm25.62-.18c-2.1-3.44-7.16-2.75-7.16-2.75,20.26-3.52,30.01,.33,30.01,.33-7.93-.29-22.85,2.42-22.85,2.42Zm62.28,21.56c.05-4.19-1.3-6.5-1.3-6.5,2.07,2.55,1.3,6.5,1.3,6.5Z"/>
  </g>
  <text class="cls-1" transform="translate(115.76 30.36)"><tspan x="0" y="0">MB Tuning</tspan></text>
</svg>