<?xml version="1.0" encoding="utf-8"?>
<!-- Generator: Adobe Illustrator 27.0.0, SVG Export Plug-In . SVG Version: 6.00 Build 0)  -->
<svg version="1.1" xmlns="http://www.w3.org/2000/svg" xmlns:xlink="http://www.w3.org/1999/xlink" x="0px" y="0px"
	 viewBox="0 0 181.7 53.9" style="enable-background:new 0 0 181.7 53.9;" xml:space="preserve">
<style type="text/css">
	.st0{fill:#FFFFFF;}
	.st1{fill:none;}
	.st2{font-family:'CoolveticaRg-Regular';}
	.st3{font-size:18px;}
</style>
<g id="Lag_1">
	<g id="layer1">
		<path id="rect17215" class="st0" d="M30.8,0.1c-0.6-0.3-1.3,0-1.5,0.6l-0.7,1.5c-0.3,0.6,0,1.3,0.5,1.5l13.6,6.4
			c0.6,0.3,1.3,0,1.5-0.6l0.7-1.5c0.3-0.6,0-1.3-0.5-1.5L30.8,0.1z M29.4,5.1l-8.7,18.4l11.9,5.6l8.7-18.4L29.4,5.1
			C29.4,5.1,29.4,5.1,29.4,5.1z M40.5,18.5c-0.7-0.3-1.4,0-1.7,0.6L37,23c-0.3,0.6,0,1.4,0.6,1.7l36.1,17c0.7,0.3,1.4,0,1.7-0.6
			l1.8-3.9c0.3-0.7,0-1.4-0.6-1.7L40.5,18.5L40.5,18.5L40.5,18.5z M19.4,24.2c-0.6-0.3-1.3,0-1.5,0.5l-0.7,1.5
			c-0.3,0.6,0,1.3,0.5,1.5l13.6,6.4c0.6,0.3,1.3,0,1.5-0.5l0.7-1.5c0.3-0.6,0-1.3-0.5-1.5L19.4,24.2L19.4,24.2z"/>
		<path id="rect17225" class="st0" d="M6.6,43.1c-0.9,0-1.6,0.7-1.6,1.6v2.5H3.4c-1.1,0-1.5,1-2,2l-1.3,2.8c-0.5,1,0.9,2,2,2h33.5
			c1.1,0,2.5-1,2-2l-1.6-2.8c-0.5-0.9-0.9-2-2-2h-1.7v-2.5c0-0.9-0.7-1.6-1.6-1.6C30.6,43.1,6.6,43.1,6.6,43.1z"/>
	</g>
	<rect x="87.7" y="24" class="st1" width="83.4" height="13.1"/>
	<text transform="matrix(1 0 0 1 87.6693 36.1451)" class="st0 st2 st3">Skrotbud</text>
</g>
<g id="Lag_2">
</g>
</svg>
