<?xml version="1.0" encoding="utf-8"?>
<!-- Generator: Adobe Illustrator 27.0.0, SVG Export Plug-In . SVG Version: 6.00 Build 0)  -->
<svg version="1.1" id="Lag_1" xmlns="http://www.w3.org/2000/svg" xmlns:xlink="http://www.w3.org/1999/xlink" x="0px" y="0px"
	 viewBox="0 0 201.6 53.9" style="enable-background:new 0 0 201.6 53.9;" xml:space="preserve">
<style type="text/css">
	.st0{fill:#1D1D1B;}
	.st1{font-family:'Montserrat-SemiBold';}
	.st2{font-size:17px;}
</style>
<text transform="matrix(1 0 0 1 99.4487 37.77)" class="st0 st1 st2">S</text>
<text transform="matrix(1 0 0 1 110.2987 37.77)" class="st0 st1 st2">k</text>
<text transform="matrix(1 0 0 1 121.4487 37.77)" class="st0 st1 st2">r</text>
<text transform="matrix(1 0 0 1 128.6187 37.77)" class="st0 st1 st2">otbud</text>
<g id="layer1">
	<path id="rect17215" class="st0" d="M30.8,0.1c-0.6-0.3-1.3,0-1.5,0.6l-0.7,1.5c-0.3,0.6,0,1.3,0.5,1.5l13.6,6.4
		c0.6,0.3,1.3,0,1.5-0.6l0.7-1.5c0.3-0.6,0-1.3-0.5-1.5L30.8,0.1z M29.4,5.1l-8.7,18.4l11.9,5.6l8.7-18.4L29.4,5.1
		C29.4,5.1,29.4,5.1,29.4,5.1z M40.5,18.5c-0.7-0.3-1.4,0-1.7,0.6L37,23c-0.3,0.6,0,1.4,0.6,1.7l36.1,17c0.7,0.3,1.4,0,1.7-0.6
		l1.8-3.9c0.3-0.7,0-1.4-0.6-1.7L40.5,18.5L40.5,18.5z M19.4,24.2c-0.6-0.3-1.3,0-1.5,0.5l-0.7,1.5c-0.3,0.6,0,1.3,0.5,1.5l13.6,6.4
		c0.6,0.3,1.3,0,1.5-0.5l0.7-1.5c0.3-0.6,0-1.3-0.5-1.5L19.4,24.2L19.4,24.2z"/>
	<path id="rect17225" class="st0" d="M6.6,43.1c-0.9,0-1.6,0.7-1.6,1.6V47c0,0,0,0.1,0,0.2H3.4c-1.1,0-1.5,1-2,2l-1.3,2.8
		c-0.5,1,0.9,2,2,2h33.5c1.1,0,2.5-1,2-2l-1.6-2.8c-0.5-0.9-0.9-2-2-2h-1.7c0,0,0-0.1,0-0.2v-2.3c0-0.9-0.7-1.6-1.6-1.6
		C30.6,43.1,6.6,43.1,6.6,43.1z"/>
</g>
</svg>
