<?xml version="1.0" encoding="UTF-8"?>
<svg id="Lag_1" data-name="Lag 1" xmlns="http://www.w3.org/2000/svg" viewBox="0 0 171.08 53.9">
  <defs>
    <style>
      .cls-1, .cls-2 {
        fill: #fff;
      }

      .cls-2 {
        font-family: CoolveticaRg-Regular, Coolvetica;
        font-size: 18px;
      }

      .cls-3 {
        letter-spacing: -.03em;
      }
    </style>
  </defs>
  <g id="layer1">
    <path id="rect17215" class="cls-1" d="M30.75,.11c-.58-.27-1.26-.03-1.53,.55l-.7,1.48c-.27,.58-.03,1.26,.55,1.53l13.65,6.45c.58,.27,1.26,.03,1.53-.55l.7-1.48c.27-.58,.03-1.26-.55-1.53L30.75,.11Zm-1.37,4.98l-8.7,18.39,11.87,5.61,8.7-18.39-11.87-5.61h0Zm11.17,13.45c-.65-.31-1.43-.03-1.74,.62l-1.83,3.87c-.31,.65-.03,1.43,.62,1.74l36.06,17.05c.65,.31,1.43,.03,1.74-.62l1.83-3.87c.31-.65,.03-1.43-.62-1.74L40.54,18.53h0Zm-21.15,5.63c-.58-.27-1.26-.03-1.53,.55l-.7,1.48c-.27,.58-.03,1.26,.55,1.53l13.65,6.45c.58,.27,1.26,.03,1.53-.55l.7-1.48c.27-.58,.03-1.26-.55-1.53l-13.65-6.45h0Z"/>
    <path id="rect17225" class="cls-1" d="M6.64,43.08c-.9,0-1.63,.73-1.63,1.63v2.47h-1.65c-1.09,0-1.5,.98-1.96,1.96L.09,51.94c-.46,.98,.88,1.96,1.96,1.96H35.54c1.09,0,2.51-1.02,1.96-1.96l-1.64-2.8c-.55-.94-.88-1.96-1.96-1.96h-1.65v-2.47c0-.9-.73-1.63-1.63-1.63,0,0-23.98,0-23.98,0Z"/>
  </g>
  <text class="cls-2" transform="translate(87.67 36.15)"><tspan x="0" y="0">Sk</tspan><tspan class="cls-3" x="18.83" y="0">r</tspan><tspan x="24.07" y="0">otbud</tspan></text>
</svg>